<?xml version="1.0" encoding="UTF-8"?><svg id="Layer_1" xmlns="http://www.w3.org/2000/svg" viewBox="0 0 433.42 79.7"><defs><style>.cls-1{fill:#c00000;}.cls-2{fill:#fff;}.cls-3{fill:#303030;}.cls-4{fill:#c00;}.cls-5{fill:#8e0c0c;}</style></defs><rect class="cls-1" x="325.32" y="2.11" width="1.5" height="75.32"/><path class="cls-3" d="M89.83,28.89v28.53h-7.89v-28.53h-10.01v-6.83h27.92v6.83h-10.01Z"/><path class="cls-3" d="M105.61,22.06h7.89v35.35h-7.89V22.06Z"/><path class="cls-3" d="M138.43,50.43c3.88,0,7.05-1.53,9.51-4.6l5.06,5.21c-4.01,4.52-8.74,6.78-14.19,6.78s-9.93-1.72-13.45-5.16c-3.52-3.44-5.29-7.78-5.29-13.02s1.8-9.62,5.39-13.12c3.59-3.51,7.98-5.26,13.18-5.26,5.8,0,10.65,2.21,14.57,6.63l-4.91,5.56c-2.5-3.1-5.6-4.65-9.31-4.65-2.97,0-5.51.97-7.61,2.91-2.11,1.94-3.16,4.55-3.16,7.84s.99,5.93,2.98,7.92c1.99,1.99,4.4,2.98,7.23,2.98Z"/><path class="cls-3" d="M159.22,22.06h7.89v14.52l13.35-14.52h9.76l-14.06,15.63c1.21,1.69,3.45,4.83,6.73,9.43,3.27,4.6,5.72,8.03,7.33,10.29h-9.21l-10.37-13.96-3.54,3.94v10.01h-7.89V22.06Z"/><path class="cls-3" d="M226.79,35.16l-9.56,19.32h-4.7l-9.51-19.32v22.25h-7.89V22.06h10.67l9.1,19.42,9.16-19.42h10.62v35.35h-7.89v-22.25Z"/><path class="cls-3" d="M243.38,22.06h7.89v35.35h-7.89V22.06Z"/><path class="cls-3" d="M259.97,57.41V22.06h7.89v28.32h15.07v7.03h-22.96Z"/><path class="cls-3" d="M288.7,57.41V22.06h7.89v28.32h15.07v7.03h-22.96Z"/><path class="cls-4" d="M14.7,33c0-.68.48-1.51,1.06-1.85l11.65-6.76c.58-.34,1.54-.34,2.12,0l10.16,5.9,14.34-8.27c-.1-.08-.21-.16-.32-.22l-22.66-13.35c-1.43-.84-3.76-.84-5.18,0L3.21,21.8c-1.44.85-2.62,2.94-2.62,4.65v26.39l14.1-8.13v-11.7Z"/><path class="cls-4" d="M42.24,34.83v11.7c0,.68-.48,1.51-1.06,1.85l-11.65,6.76c-.58.34-1.54.34-2.12,0l-10.16-5.9-14.34,8.27c.1.08.21.16.32.22l22.66,13.35c1.43.84,3.76.84,5.18,0l22.66-13.35c1.44-.85,2.62-2.94,2.62-4.65v-26.39l-14.1,8.13Z"/><polygon class="cls-5" points="405.31 49.57 405.35 43.93 398.13 43.93 405.31 49.57"/><path class="cls-3" d="M417.67,45.16c0,8.62-1.79,15.22-5.35,19.79-3.57,4.57-8.8,6.85-15.68,6.85s-12-2.24-15.59-6.73c-3.6-4.48-5.44-10.91-5.53-19.28v-11.48c0-8.71,1.81-15.32,5.42-19.83,3.61-4.51,8.82-6.77,15.61-6.77s12,2.24,15.59,6.7c3.6,4.47,5.44,10.89,5.53,19.26v11.48ZM405.29,32.54c0-5.17-.71-8.94-2.12-11.3-1.41-2.36-3.62-3.54-6.62-3.54s-5.06,1.12-6.45,3.37c-1.39,2.24-2.12,5.75-2.21,10.53v15.18c0,5.09.69,8.87,2.08,11.34,1.39,2.47,3.61,3.71,6.66,3.71s5.21-1.19,6.55-3.56c1.34-2.37,2.04-6,2.1-10.89v-14.84Z"/><path class="cls-3" d="M368.28,71.81h-12.38V24.09l-14.78,4.58v-10.07l25.83-9.25h1.33v62.46Z"/><polygon class="cls-4" points="398.13 30.31 432.53 30.31 427.14 37.09 432.53 43.93 398.13 43.93 398.13 30.31"/><path class="cls-2" d="M402.93,36.72l1.22-2.47h1.01s-1.78,3.3-1.78,3.3v1.93s-.93,0-.93,0v-1.93s-1.72-3.32-1.72-3.32h1.01s1.18,2.49,1.18,2.49Z"/><path class="cls-2" d="M409.13,37.18l-2.15-.02v1.61s2.5.02,2.5.02v.73s-3.42-.02-3.42-.02l.04-5.23,3.39.02v.73s-2.49-.02-2.49-.02v1.44s2.14.02,2.14.02v.72Z"/><path class="cls-2" d="M413.51,38.33h-2.02s-.43,1.2-.43,1.2h-.94s2.01-5.22,2.01-5.22h.81s1.94,5.25,1.94,5.25h-.95s-.42-1.23-.42-1.23ZM411.75,37.58h1.52s-.74-2.16-.74-2.16l-.77,2.16Z"/><path class="cls-2" d="M417.78,37.57h-1.01s-.01,2-.01,2h-.91s.04-5.24.04-5.24h1.84c.6.02,1.07.16,1.39.43.33.27.49.67.48,1.18,0,.35-.09.64-.26.88s-.41.41-.71.54l1.16,2.19v.05s-.97,0-.97,0l-1.03-2.02ZM416.77,36.83h.93c.31,0,.55-.07.72-.22.17-.15.26-.36.26-.63,0-.28-.08-.5-.23-.65-.16-.15-.4-.23-.71-.24h-.96s-.01,1.75-.01,1.75Z"/><path class="cls-2" d="M423.54,38.27c0-.23-.08-.41-.24-.53-.16-.12-.45-.25-.87-.38s-.75-.27-1-.43c-.47-.3-.71-.69-.71-1.18,0-.42.18-.77.52-1.04.34-.27.79-.4,1.34-.4.36,0,.69.07.97.21.28.14.51.33.67.58.16.25.24.52.24.83h-.9c0-.28-.08-.49-.25-.65-.17-.16-.41-.23-.73-.24-.3,0-.53.06-.69.18-.17.13-.25.3-.25.53,0,.19.09.35.26.48.18.13.47.26.87.38.41.12.73.26.98.42.25.16.43.34.54.54s.17.43.17.7c0,.44-.17.78-.51,1.04-.34.25-.79.38-1.36.38-.38,0-.73-.08-1.04-.22s-.56-.34-.74-.59c-.17-.25-.26-.54-.26-.86h.91c0,.3.09.53.29.7.19.16.48.25.84.25.32,0,.55-.06.71-.19.16-.13.24-.3.24-.51Z"/></svg>